<svg xmlns="http://www.w3.org/2000/svg" viewBox="0 0 512 512" role="img" aria-labelledby="title desc">
  <title id="title">py-mfuzz sticker</title>
  <desc id="desc">OmicVerse repository hex sticker for py-mfuzz.</desc>
  <defs>
    <linearGradient id="bg" x1="112" y1="90" x2="398" y2="430" gradientUnits="userSpaceOnUse">
      <stop offset="0" stop-color="#050706"/>
      <stop offset=".58" stop-color="#020403"/>
      <stop offset="1" stop-color="#000000"/>
    </linearGradient>
  </defs>
  <polygon points="256,34 450,146 450,368 256,480 62,368 62,146" fill="#000000" opacity=".34"/>
  <polygon points="256,22 458,139 458,373 256,490 54,373 54,139" fill="url(#bg)" stroke="#0B0F0A" stroke-width="19" stroke-linejoin="round"/>
  <polygon points="256,22 458,139 458,373 256,490 54,373 54,139" fill="none" stroke="#E8FFE0" stroke-width="12" stroke-linejoin="round"/>
  <g opacity=".22" stroke="#3BCB66" stroke-width="2.2">
    <path d="M112 166h288M100 222h312M100 278h312M112 334h288"/>
    <path d="M152 126v236M204 104v274M256 96v286M308 104v274M360 126v236"/>
  </g>
  
  <g id="motif">
    <path d="M128 314h260M142 314V150" stroke="#FFFFFF" stroke-width="7" stroke-linecap="round"/>
    <path d="M147 279c44-85 89-85 134 0s77 84 100 0" fill="none" stroke="#32D74B" stroke-width="8" stroke-linecap="round"/>
    <path d="M147 232c40 37 81 37 122 0s77-37 112 0" fill="none" stroke="#FFD60A" stroke-width="8" stroke-linecap="round"/>
    <path d="M147 188c54 21 110 36 173 45" fill="none" stroke="#12B5CB" stroke-width="8" stroke-linecap="round"/>
    <circle cx="229" cy="232" r="12" fill="#FF6B6B" stroke="#FFFFFF" stroke-width="4"/>
  </g>
  <path id="label" d="M306.12,383.73 L310.42,391.18 L305.88,393.80 L294.57,374.20 L299.10,371.58 L300.30,373.66 Q300.53,371.87 301.33,370.63 Q302.13,369.38 303.61,368.53 Q306.24,367.01 309.12,368.12 Q312.02,369.23 313.91,372.52 Q315.80,375.80 315.32,378.86 Q314.84,381.92 312.22,383.43 Q310.73,384.29 309.26,384.36 Q307.77,384.43 306.12,383.73 Z M303.83,372.79 Q302.37,373.63 302.21,375.16 Q302.05,376.68 303.21,378.69 Q304.37,380.71 305.77,381.33 Q307.17,381.95 308.63,381.11 Q310.08,380.27 310.24,378.76 Q310.39,377.25 309.22,375.22 Q308.05,373.19 306.67,372.58 Q305.28,371.95 303.83,372.79 Z M311.29,364.55 L315.83,361.93 L325.20,369.36 L322.89,357.85 L327.42,355.23 L330.42,374.22 Q330.90,377.11 330.24,378.75 Q329.59,380.38 327.63,381.51 L325.00,383.03 L323.28,380.05 L324.70,379.23 Q325.85,378.57 326.16,377.90 Q326.48,377.23 326.22,376.10 L326.12,375.64 L311.29,364.55 Z M332.12,359.03 L340.08,354.43 L342.20,358.12 L334.25,362.72 L332.12,359.03 Z M355.36,342.24 Q355.47,340.43 356.25,339.05 Q357.04,337.68 358.46,336.86 Q360.91,335.45 363.06,336.22 Q365.21,336.98 366.87,339.86 L371.86,348.50 L367.30,351.14 L363.03,343.74 Q362.94,343.56 362.85,343.39 Q362.75,343.20 362.56,342.87 Q361.69,341.37 360.85,340.95 Q360.02,340.52 359.03,341.09 Q357.74,341.84 357.65,343.31 Q357.56,344.78 358.69,346.81 L362.72,353.78 L358.16,356.42 L353.88,349.02 Q352.52,346.66 351.73,346.22 Q350.93,345.77 349.89,346.37 Q348.58,347.12 348.49,348.60 Q348.40,350.08 349.55,352.07 L353.58,359.06 L349.02,361.69 L340.82,347.50 L345.38,344.86 L346.58,346.94 Q346.73,345.25 347.46,344.02 Q348.19,342.79 349.50,342.03 Q350.97,341.18 352.51,341.24 Q354.05,341.30 355.36,342.24 Z M374.05,320.94 L375.77,323.92 L373.26,325.37 Q372.30,325.93 372.12,326.50 Q371.94,327.06 372.44,327.92 L373.01,328.91 L376.89,326.68 L378.76,329.92 L374.88,332.16 L381.20,343.11 L376.66,345.73 L370.34,334.78 L368.09,336.08 L366.21,332.84 L368.47,331.54 L367.90,330.55 Q366.56,328.23 367.21,326.37 Q367.86,324.51 370.57,322.95 L374.05,320.94 Z M384.05,334.10 L379.04,325.43 L383.60,322.80 L384.42,324.22 Q385.09,325.37 386.08,327.12 Q387.08,328.87 387.41,329.45 Q388.40,331.16 388.93,331.87 Q389.45,332.57 389.87,332.79 Q390.40,333.07 390.99,333.06 Q391.58,333.03 392.16,332.70 Q393.58,331.88 393.76,330.32 Q393.94,328.76 392.82,326.82 L388.78,319.81 L393.31,317.19 L401.51,331.39 L396.97,334.01 L395.79,331.96 Q395.48,333.79 394.67,335.04 Q393.86,336.29 392.48,337.09 Q390.02,338.51 387.87,337.75 Q385.71,336.98 384.05,334.10 Z M396.98,315.07 L409.36,307.92 L411.19,311.09 L408.21,323.20 L415.69,318.88 L417.56,322.12 L404.86,329.45 L403.03,326.29 L406.01,314.19 L398.85,318.32 L396.98,315.07 Z M412.09,306.35 L424.47,299.20 L426.30,302.37 L423.32,314.47 L430.80,310.15 L432.67,313.40 L419.97,320.73 L418.14,317.56 L421.12,305.46 L413.96,309.60 L412.09,306.35 Z" fill="#FFFFFF"/>
</svg>
